<svg xmlns="http://www.w3.org/2000/svg" width="362" height="362" viewbox="0 0 362 362" preserveAspectRatio="none"><rect x="0" y="0" width="100%" height="100%" fill="rgb(69, 104, 137)" /><polyline points="0, 0, 45.333333333333, 45.333333333333, 0, 45.333333333333, 0, 0" stroke="#000" stroke-opacity="0.02" fill-opacity="0.13266666666667" fill="#222" transform="translate(0, 45.333333333333) scale(1, -1)" /><polyline points="0, 0, 45.333333333333, 45.333333333333, 0, 45.333333333333, 0, 0" stroke="#000" stroke-opacity="0.02" fill-opacity="0.13266666666667" fill="#222" transform="translate(90.666666666667, 45.333333333333) scale(-1, -1)" /><polyline points="0, 0, 45.333333333333, 45.333333333333, 0, 45.333333333333, 0, 0" stroke="#000" stroke-opacity="0.02" fill-opacity="0.13266666666667" fill="#222" transform="translate(0, 45.333333333333) scale(1, 1)" /><polyline points="0, 0, 45.333333333333, 45.333333333333, 0, 45.333333333333, 0, 0" stroke="#000" stroke-opacity="0.02" fill-opacity="0.13266666666667" fill="#222" transform="translate(90.666666666667, 45.333333333333) scale(-1, 1)" /><polyline points="0, 0, 45.333333333333, 45.333333333333, 0, 45.333333333333, 0, 0" stroke="#000" stroke-opacity="0.02" fill-opacity="0.02" fill="#ddd" transform="translate(136, 0) scale(-1, 1)" /><polyline points="0, 0, 45.333333333333, 45.333333333333, 0, 45.333333333333, 0, 0" stroke="#000" stroke-opacity="0.02" fill-opacity="0.02" fill="#ddd" transform="translate(136, 90.666666666667) scale(1, -1)" /><polyline points="0, 0, 45.333333333333, 45.333333333333, 0, 45.333333333333, 0, 0" stroke="#000" stroke-opacity="0.02" fill-opacity="0.046" fill="#222" transform="translate(136, 90.666666666667) scale(-1, -1)" /><polyline points="0, 0, 45.333333333333, 45.333333333333, 0, 45.333333333333, 0, 0" stroke="#000" stroke-opacity="0.02" fill-opacity="0.046" fill="#222" transform="translate(136, 0) scale(1, 1)" /><polyline points="0, 0, 45.333333333333, 45.333333333333, 0, 45.333333333333, 0, 0" stroke="#000" stroke-opacity="0.02" fill-opacity="0.046" fill="#222" transform="translate(181.33333333333, 45.333333333333) scale(1, -1)" /><polyline points="0, 0, 45.333333333333, 45.333333333333, 0, 45.333333333333, 0, 0" stroke="#000" stroke-opacity="0.02" fill-opacity="0.046" fill="#222" transform="translate(272, 45.333333333333) scale(-1, -1)" /><polyline points="0, 0, 45.333333333333, 45.333333333333, 0, 45.333333333333, 0, 0" stroke="#000" stroke-opacity="0.02" fill-opacity="0.046" fill="#222" transform="translate(181.33333333333, 45.333333333333) scale(1, 1)" /><polyline points="0, 0, 45.333333333333, 45.333333333333, 0, 45.333333333333, 0, 0" stroke="#000" stroke-opacity="0.02" fill-opacity="0.046" fill="#222" transform="translate(272, 45.333333333333) scale(-1, 1)" /><polyline points="0, 0, 45.333333333333, 45.333333333333, 0, 45.333333333333, 0, 0" stroke="#000" stroke-opacity="0.02" fill-opacity="0.037333333333333" fill="#ddd" transform="translate(317.33333333333, 0) scale(-1, 1)" /><polyline points="0, 0, 45.333333333333, 45.333333333333, 0, 45.333333333333, 0, 0" stroke="#000" stroke-opacity="0.02" fill-opacity="0.037333333333333" fill="#ddd" transform="translate(317.33333333333, 90.666666666667) scale(1, -1)" /><polyline points="0, 0, 45.333333333333, 45.333333333333, 0, 45.333333333333, 0, 0" stroke="#000" stroke-opacity="0.02" fill-opacity="0.14133333333333" fill="#ddd" transform="translate(317.33333333333, 90.666666666667) scale(-1, -1)" /><polyline points="0, 0, 45.333333333333, 45.333333333333, 0, 45.333333333333, 0, 0" stroke="#000" stroke-opacity="0.02" fill-opacity="0.14133333333333" fill="#ddd" transform="translate(317.33333333333, 0) scale(1, 1)" /><polyline points="0, 0, 45.333333333333, 45.333333333333, 0, 45.333333333333, 0, 0" stroke="#000" stroke-opacity="0.02" fill-opacity="0.14133333333333" fill="#ddd" transform="translate(45.333333333333, 90.666666666667) scale(-1, 1)" /><polyline points="0, 0, 45.333333333333, 45.333333333333, 0, 45.333333333333, 0, 0" stroke="#000" stroke-opacity="0.02" fill-opacity="0.14133333333333" fill="#ddd" transform="translate(45.333333333333, 181.33333333333) scale(1, -1)" /><polyline points="0, 0, 45.333333333333, 45.333333333333, 0, 45.333333333333, 0, 0" stroke="#000" stroke-opacity="0.02" fill-opacity="0.15" fill="#222" transform="translate(45.333333333333, 181.33333333333) scale(-1, -1)" /><polyline points="0, 0, 45.333333333333, 45.333333333333, 0, 45.333333333333, 0, 0" stroke="#000" stroke-opacity="0.02" fill-opacity="0.15" fill="#222" transform="translate(45.333333333333, 90.666666666667) scale(1, 1)" /><polyline points="0, 0, 45.333333333333, 45.333333333333, 0, 45.333333333333, 0, 0" stroke="#000" stroke-opacity="0.02" fill-opacity="0.15" fill="#222" transform="translate(90.666666666667, 136) scale(1, -1)" /><polyline points="0, 0, 45.333333333333, 45.333333333333, 0, 45.333333333333, 0, 0" stroke="#000" stroke-opacity="0.02" fill-opacity="0.15" fill="#222" transform="translate(181.33333333333, 136) scale(-1, -1)" /><polyline points="0, 0, 45.333333333333, 45.333333333333, 0, 45.333333333333, 0, 0" stroke="#000" stroke-opacity="0.02" fill-opacity="0.15" fill="#222" transform="translate(90.666666666667, 136) scale(1, 1)" /><polyline points="0, 0, 45.333333333333, 45.333333333333, 0, 45.333333333333, 0, 0" stroke="#000" stroke-opacity="0.02" fill-opacity="0.15" fill="#222" transform="translate(181.33333333333, 136) scale(-1, 1)" /><polyline points="0, 0, 45.333333333333, 45.333333333333, 0, 45.333333333333, 0, 0" stroke="#000" stroke-opacity="0.02" fill-opacity="0.028666666666667" fill="#222" transform="translate(226.66666666667, 90.666666666667) scale(-1, 1)" /><polyline points="0, 0, 45.333333333333, 45.333333333333, 0, 45.333333333333, 0, 0" stroke="#000" stroke-opacity="0.02" fill-opacity="0.028666666666667" fill="#222" transform="translate(226.66666666667, 181.33333333333) scale(1, -1)" /><polyline points="0, 0, 45.333333333333, 45.333333333333, 0, 45.333333333333, 0, 0" stroke="#000" stroke-opacity="0.02" fill-opacity="0.098" fill="#222" transform="translate(226.66666666667, 181.33333333333) scale(-1, -1)" /><polyline points="0, 0, 45.333333333333, 45.333333333333, 0, 45.333333333333, 0, 0" stroke="#000" stroke-opacity="0.02" fill-opacity="0.098" fill="#222" transform="translate(226.66666666667, 90.666666666667) scale(1, 1)" /><polyline points="0, 0, 45.333333333333, 45.333333333333, 0, 45.333333333333, 0, 0" stroke="#000" stroke-opacity="0.02" fill-opacity="0.098" fill="#222" transform="translate(272, 136) scale(1, -1)" /><polyline points="0, 0, 45.333333333333, 45.333333333333, 0, 45.333333333333, 0, 0" stroke="#000" stroke-opacity="0.02" fill-opacity="0.098" fill="#222" transform="translate(362.66666666667, 136) scale(-1, -1)" /><polyline points="0, 0, 45.333333333333, 45.333333333333, 0, 45.333333333333, 0, 0" stroke="#000" stroke-opacity="0.02" fill-opacity="0.098" fill="#222" transform="translate(272, 136) scale(1, 1)" /><polyline points="0, 0, 45.333333333333, 45.333333333333, 0, 45.333333333333, 0, 0" stroke="#000" stroke-opacity="0.02" fill-opacity="0.098" fill="#222" transform="translate(362.66666666667, 136) scale(-1, 1)" /><polyline points="0, 0, 45.333333333333, 45.333333333333, 0, 45.333333333333, 0, 0" stroke="#000" stroke-opacity="0.02" fill-opacity="0.054666666666667" fill="#ddd" transform="translate(0, 226.66666666667) scale(1, -1)" /><polyline points="0, 0, 45.333333333333, 45.333333333333, 0, 45.333333333333, 0, 0" stroke="#000" stroke-opacity="0.02" fill-opacity="0.054666666666667" fill="#ddd" transform="translate(90.666666666667, 226.66666666667) scale(-1, -1)" /><polyline points="0, 0, 45.333333333333, 45.333333333333, 0, 45.333333333333, 0, 0" stroke="#000" stroke-opacity="0.02" fill-opacity="0.054666666666667" fill="#ddd" transform="translate(0, 226.66666666667) scale(1, 1)" /><polyline points="0, 0, 45.333333333333, 45.333333333333, 0, 45.333333333333, 0, 0" stroke="#000" stroke-opacity="0.02" fill-opacity="0.054666666666667" fill="#ddd" transform="translate(90.666666666667, 226.66666666667) scale(-1, 1)" /><polyline points="0, 0, 45.333333333333, 45.333333333333, 0, 45.333333333333, 0, 0" stroke="#000" stroke-opacity="0.02" fill-opacity="0.054666666666667" fill="#ddd" transform="translate(136, 181.33333333333) scale(-1, 1)" /><polyline points="0, 0, 45.333333333333, 45.333333333333, 0, 45.333333333333, 0, 0" stroke="#000" stroke-opacity="0.02" fill-opacity="0.054666666666667" fill="#ddd" transform="translate(136, 272) scale(1, -1)" /><polyline points="0, 0, 45.333333333333, 45.333333333333, 0, 45.333333333333, 0, 0" stroke="#000" stroke-opacity="0.02" fill-opacity="0.10666666666667" fill="#ddd" transform="translate(136, 272) scale(-1, -1)" /><polyline points="0, 0, 45.333333333333, 45.333333333333, 0, 45.333333333333, 0, 0" stroke="#000" stroke-opacity="0.02" fill-opacity="0.10666666666667" fill="#ddd" transform="translate(136, 181.33333333333) scale(1, 1)" /><polyline points="0, 0, 45.333333333333, 45.333333333333, 0, 45.333333333333, 0, 0" stroke="#000" stroke-opacity="0.02" fill-opacity="0.10666666666667" fill="#ddd" transform="translate(181.33333333333, 226.66666666667) scale(1, -1)" /><polyline points="0, 0, 45.333333333333, 45.333333333333, 0, 45.333333333333, 0, 0" stroke="#000" stroke-opacity="0.02" fill-opacity="0.10666666666667" fill="#ddd" transform="translate(272, 226.66666666667) scale(-1, -1)" /><polyline points="0, 0, 45.333333333333, 45.333333333333, 0, 45.333333333333, 0, 0" stroke="#000" stroke-opacity="0.02" fill-opacity="0.10666666666667" fill="#ddd" transform="translate(181.33333333333, 226.66666666667) scale(1, 1)" /><polyline points="0, 0, 45.333333333333, 45.333333333333, 0, 45.333333333333, 0, 0" stroke="#000" stroke-opacity="0.02" fill-opacity="0.10666666666667" fill="#ddd" transform="translate(272, 226.66666666667) scale(-1, 1)" /><polyline points="0, 0, 45.333333333333, 45.333333333333, 0, 45.333333333333, 0, 0" stroke="#000" stroke-opacity="0.02" fill-opacity="0.10666666666667" fill="#ddd" transform="translate(317.33333333333, 181.33333333333) scale(-1, 1)" /><polyline points="0, 0, 45.333333333333, 45.333333333333, 0, 45.333333333333, 0, 0" stroke="#000" stroke-opacity="0.02" fill-opacity="0.10666666666667" fill="#ddd" transform="translate(317.33333333333, 272) scale(1, -1)" /><polyline points="0, 0, 45.333333333333, 45.333333333333, 0, 45.333333333333, 0, 0" stroke="#000" stroke-opacity="0.02" fill-opacity="0.072" fill="#ddd" transform="translate(317.33333333333, 272) scale(-1, -1)" /><polyline points="0, 0, 45.333333333333, 45.333333333333, 0, 45.333333333333, 0, 0" stroke="#000" stroke-opacity="0.02" fill-opacity="0.072" fill="#ddd" transform="translate(317.33333333333, 181.33333333333) scale(1, 1)" /><polyline points="0, 0, 45.333333333333, 45.333333333333, 0, 45.333333333333, 0, 0" stroke="#000" stroke-opacity="0.02" fill-opacity="0.072" fill="#ddd" transform="translate(45.333333333333, 272) scale(-1, 1)" /><polyline points="0, 0, 45.333333333333, 45.333333333333, 0, 45.333333333333, 0, 0" stroke="#000" stroke-opacity="0.02" fill-opacity="0.072" fill="#ddd" transform="translate(45.333333333333, 362.66666666667) scale(1, -1)" /><polyline points="0, 0, 45.333333333333, 45.333333333333, 0, 45.333333333333, 0, 0" stroke="#000" stroke-opacity="0.02" fill-opacity="0.046" fill="#222" transform="translate(45.333333333333, 362.66666666667) scale(-1, -1)" /><polyline points="0, 0, 45.333333333333, 45.333333333333, 0, 45.333333333333, 0, 0" stroke="#000" stroke-opacity="0.02" fill-opacity="0.046" fill="#222" transform="translate(45.333333333333, 272) scale(1, 1)" /><polyline points="0, 0, 45.333333333333, 45.333333333333, 0, 45.333333333333, 0, 0" stroke="#000" stroke-opacity="0.02" fill-opacity="0.046" fill="#222" transform="translate(90.666666666667, 317.33333333333) scale(1, -1)" /><polyline points="0, 0, 45.333333333333, 45.333333333333, 0, 45.333333333333, 0, 0" stroke="#000" stroke-opacity="0.02" fill-opacity="0.046" fill="#222" transform="translate(181.33333333333, 317.33333333333) scale(-1, -1)" /><polyline points="0, 0, 45.333333333333, 45.333333333333, 0, 45.333333333333, 0, 0" stroke="#000" stroke-opacity="0.02" fill-opacity="0.046" fill="#222" transform="translate(90.666666666667, 317.33333333333) scale(1, 1)" /><polyline points="0, 0, 45.333333333333, 45.333333333333, 0, 45.333333333333, 0, 0" stroke="#000" stroke-opacity="0.02" fill-opacity="0.046" fill="#222" transform="translate(181.33333333333, 317.33333333333) scale(-1, 1)" /><polyline points="0, 0, 45.333333333333, 45.333333333333, 0, 45.333333333333, 0, 0" stroke="#000" stroke-opacity="0.02" fill-opacity="0.072" fill="#ddd" transform="translate(226.66666666667, 272) scale(-1, 1)" /><polyline points="0, 0, 45.333333333333, 45.333333333333, 0, 45.333333333333, 0, 0" stroke="#000" stroke-opacity="0.02" fill-opacity="0.072" fill="#ddd" transform="translate(226.66666666667, 362.66666666667) scale(1, -1)" /><polyline points="0, 0, 45.333333333333, 45.333333333333, 0, 45.333333333333, 0, 0" stroke="#000" stroke-opacity="0.02" fill-opacity="0.11533333333333" fill="#222" transform="translate(226.66666666667, 362.66666666667) scale(-1, -1)" /><polyline points="0, 0, 45.333333333333, 45.333333333333, 0, 45.333333333333, 0, 0" stroke="#000" stroke-opacity="0.02" fill-opacity="0.11533333333333" fill="#222" transform="translate(226.66666666667, 272) scale(1, 1)" /><polyline points="0, 0, 45.333333333333, 45.333333333333, 0, 45.333333333333, 0, 0" stroke="#000" stroke-opacity="0.02" fill-opacity="0.11533333333333" fill="#222" transform="translate(272, 317.33333333333) scale(1, -1)" /><polyline points="0, 0, 45.333333333333, 45.333333333333, 0, 45.333333333333, 0, 0" stroke="#000" stroke-opacity="0.02" fill-opacity="0.11533333333333" fill="#222" transform="translate(362.66666666667, 317.33333333333) scale(-1, -1)" /><polyline points="0, 0, 45.333333333333, 45.333333333333, 0, 45.333333333333, 0, 0" stroke="#000" stroke-opacity="0.02" fill-opacity="0.11533333333333" fill="#222" transform="translate(272, 317.33333333333) scale(1, 1)" /><polyline points="0, 0, 45.333333333333, 45.333333333333, 0, 45.333333333333, 0, 0" stroke="#000" stroke-opacity="0.02" fill-opacity="0.11533333333333" fill="#222" transform="translate(362.66666666667, 317.33333333333) scale(-1, 1)" /></svg>